<svg xmlns="http://www.w3.org/2000/svg" xlink="http://www.w3.org/1999/xlink" version="1.1" id="myChart-svg" class="zc-svg" width="1093" height="530" display="block" viewBox="0 0 1093 530"><defs id="myChart-defs"><pattern x="95" y="366" width="0" height="0" id="myChart-graph-id0-label-lbl_0_9205-pattern" patternUnits="userSpaceOnUse"><image xlink:href="//demos.zingchart.com/view/6FW4FFOV/avitar11.png" id="myChart-graph-id0-label-lbl_0_9205-pattern-image" preserveAspectRatio="none" width="0" height="0"></image></pattern><pattern x="95" y="269" width="0" height="0" id="myChart-graph-id0-label-lbl_1_4824-pattern" patternUnits="userSpaceOnUse"><image xlink:href="//demos.zingchart.com/view/6FW4FFOV/avitar22.png" id="myChart-graph-id0-label-lbl_1_4824-pattern-image" preserveAspectRatio="none" width="0" height="0"></image></pattern></defs><g id="myChart-main" class="zc-rel zc-main"><g id="myChart-main-c" class="zc-abs"></g><g id="myChart-objects-bottom" class="zc-abs"><g id="myChart-graph-id0-objects-bottom" class="zc-abs"><g id="myChart-graph-id0-objects-bottom-sh-c" class="zc-abs zc-layer"></g><g id="myChart-graph-id0-objects-bottom-c" class="zc-abs zc-layer"></g></g></g><g id="myChart-graphset" class="zc-abs"><g id="myChart-graph-id0" class="zc-abs"><g id="myChart-graph-id0-c" class="zc-abs zc-layer zc-persistent"><path id="myChart-graph-id0-path" d="M 0 0 L 1093 0 L 1093 530 L 0 530 L 0 0 L 0 0" fill="#ffffff" fill-opacity="1" stroke-linecap="square" stroke-linejoin="miter"></path></g><g id="myChart-graph-id0-plotarea"><g id="myChart-graph-id0-plotarea-c" class="zc-abs zc-layer"></g></g><g id="myChart-graph-id0-scales-bl" clip-path="url(#myChart-graph-id0-clip)"><g id="myChart-graph-id0-scales-bl-0-c" class="zc-abs zc-layer"><path id="myChart-graph-id0-scale-x-guide-4-path" d="M 119.5 439.5 L 1042.5 439.5 M 119.5 342.5 L 1042.5 342.5 M 119.5 244.5 L 1042.5 244.5 M 119.5 147.5 L 1042.5 147.5 M 119.5 49.5 L 1042.5 49.5" fill="none" stroke-linecap="butt" stroke-linejoin="round" stroke="#DCDCDC" stroke-width="1" stroke-opacity="1"></path></g></g><g id="myChart-graph-id0-plots-bl-0" clip-path="url(#myChart-graph-id0-clip)"><g id="myChart-graph-id0-plot-0-bl-0-c" class="zc-abs zc-layer zc-bl" data-clip="118,48,927,394" style="display: block;"></g><g id="myChart-graph-id0-plot-1-bl-0-c" class="zc-abs zc-layer zc-bl" data-clip="118,48,927,394" style="display: block;"></g><g id="myChart-graph-id0-plot-2-bl-0-c" class="zc-abs zc-layer zc-bl" data-clip="118,48,927,394" style="display: block;"></g></g><g id="myChart-graph-id0-plots-bl-1" clip-path="url(#myChart-graph-id0-clip)"><g id="myChart-graph-id0-plot-0-bl-1-c" class="zc-abs zc-layer zc-bl" data-clip="118,48,927,394" style="display: block;"><path id="myChart-graph-id0-plotset-plot-0-node-0-path" class="myChart-graph-id0-node-area myChart-graph-id0-plotset-plot-0-node-area zc-node-area" d="M 120 362 L 582 362 L 582 376 L 120 376 L 120 362 L 120 362" fill="#009688" fill-opacity="1" stroke-linecap="square" stroke-linejoin="miter"></path><path id="myChart-graph-id0-plotset-plot-0-node-1-path" class="myChart-graph-id0-node-area myChart-graph-id0-plotset-plot-0-node-area zc-node-area" d="M 120 264 L 410 264 L 410 279 L 120 279 L 120 264 L 120 264" fill="#009688" fill-opacity="1" stroke-linecap="square" stroke-linejoin="miter"></path><path id="myChart-graph-id0-plotset-plot-0-node-2-path" class="myChart-graph-id0-node-area myChart-graph-id0-plotset-plot-0-node-area zc-node-area" d="M 120 167 L 779 167 L 779 181 L 120 181 L 120 167 L 120 167" fill="#009688" fill-opacity="1" stroke-linecap="square" stroke-linejoin="miter"></path><path id="myChart-graph-id0-plotset-plot-0-node-3-path" class="myChart-graph-id0-node-area myChart-graph-id0-plotset-plot-0-node-area zc-node-area" d="M 120 69 L 977 69 L 977 84 L 120 84 L 120 69 L 120 69" fill="#009688" fill-opacity="1" stroke-linecap="square" stroke-linejoin="miter"></path></g><g id="myChart-graph-id0-plot-1-bl-1-c" class="zc-abs zc-layer zc-bl" data-clip="118,48,927,394" style="display: block;"><path id="myChart-graph-id0-plotset-plot-1-node-0-path" class="myChart-graph-id0-node-area myChart-graph-id0-plotset-plot-1-node-area zc-node-area" d="M 120 384 L 516 384 L 516 399 L 120 399 L 120 384 L 120 384" fill="#ffc107" fill-opacity="1" stroke-linecap="square" stroke-linejoin="miter"></path><path id="myChart-graph-id0-plotset-plot-1-node-1-path" class="myChart-graph-id0-node-area myChart-graph-id0-plotset-plot-1-node-area zc-node-area" d="M 120 287 L 516 287 L 516 301 L 120 301 L 120 287 L 120 287" fill="#ffc107" fill-opacity="1" stroke-linecap="square" stroke-linejoin="miter"></path><path id="myChart-graph-id0-plotset-plot-1-node-2-path" class="myChart-graph-id0-node-area myChart-graph-id0-plotset-plot-1-node-area zc-node-area" d="M 120 189 L 384 189 L 384 204 L 120 204 L 120 189 L 120 189" fill="#ffc107" fill-opacity="1" stroke-linecap="square" stroke-linejoin="miter"></path><path id="myChart-graph-id0-plotset-plot-1-node-3-path" class="myChart-graph-id0-node-area myChart-graph-id0-plotset-plot-1-node-area zc-node-area" d="M 120 92 L 318 92 L 318 106 L 120 106 L 120 92 L 120 92" fill="#ffc107" fill-opacity="1" stroke-linecap="square" stroke-linejoin="miter"></path></g><g id="myChart-graph-id0-plot-2-bl-1-c" class="zc-abs zc-layer zc-bl" data-clip="118,48,927,394" style="display: block;"><path id="myChart-graph-id0-plotset-plot-2-node-0-path" class="myChart-graph-id0-node-area myChart-graph-id0-plotset-plot-2-node-area zc-node-area" d="M 120 407 L 252 407 L 252 421 L 120 421 L 120 407 L 120 407" fill="#9c27b0" fill-opacity="1" stroke-linecap="square" stroke-linejoin="miter"></path><path id="myChart-graph-id0-plotset-plot-2-node-1-path" class="myChart-graph-id0-node-area myChart-graph-id0-plotset-plot-2-node-area zc-node-area" d="M 120 309 L 674 309 L 674 324 L 120 324 L 120 309 L 120 309" fill="#9c27b0" fill-opacity="1" stroke-linecap="square" stroke-linejoin="miter"></path><path id="myChart-graph-id0-plotset-plot-2-node-2-path" class="myChart-graph-id0-node-area myChart-graph-id0-plotset-plot-2-node-area zc-node-area" d="M 120 212 L 278 212 L 278 226 L 120 226 L 120 212 L 120 212" fill="#9c27b0" fill-opacity="1" stroke-linecap="square" stroke-linejoin="miter"></path><path id="myChart-graph-id0-plotset-plot-2-node-3-path" class="myChart-graph-id0-node-area myChart-graph-id0-plotset-plot-2-node-area zc-node-area" d="M 120 114 L 225 114 L 225 129 L 120 129 L 120 114 L 120 114" fill="#9c27b0" fill-opacity="1" stroke-linecap="square" stroke-linejoin="miter"></path></g></g><g id="myChart-graph-id0-plots-bl-2" clip-path="url(#myChart-graph-id0-clip)"><g id="myChart-graph-id0-plot-0-bl-2-c" class="zc-abs zc-layer zc-bl" data-clip="118,48,927,394" style="display: block;"></g><g id="myChart-graph-id0-plot-1-bl-2-c" class="zc-abs zc-layer zc-bl" data-clip="118,48,927,394" style="display: block;"></g><g id="myChart-graph-id0-plot-2-bl-2-c" class="zc-abs zc-layer zc-bl" data-clip="118,48,927,394" style="display: block;"></g></g><g id="myChart-graph-id0-scales-ml-0-c" class="zc-abs zc-layer"><path id="myChart-graph-id0-scale-x-path" d="M 119.5 439.5 L 119.5 49.5" fill="none" stroke-linecap="butt" stroke-linejoin="round" stroke="#8C8C8C" stroke-width="1" stroke-opacity="1"></path><path id="myChart-graph-id0-scale-x-tick-4-path" d="M 119.5 439.5 L 114.5 439.5 M 119.5 342.5 L 114.5 342.5 M 119.5 244.5 L 114.5 244.5 M 119.5 147.5 L 114.5 147.5 M 119.5 49.5 L 114.5 49.5" fill="none" stroke-linecap="butt" stroke-linejoin="round" stroke="#8C8C8C" stroke-width="1" stroke-opacity="1"></path><path id="myChart-graph-id0-scale-y-path" d="M 119.5 439.5 L 1042.5 439.5" fill="none" stroke-linecap="butt" stroke-linejoin="round" stroke="#8C8C8C" stroke-width="1" stroke-opacity="1"></path><path id="myChart-graph-id0-scale-y-tick-7-path" d="M 119.5 439.5 L 119.5 444.5 M 251.5 439.5 L 251.5 444.5 M 383.5 439.5 L 383.5 444.5 M 515.5 439.5 L 515.5 444.5 M 646.5 439.5 L 646.5 444.5 M 778.5 439.5 L 778.5 444.5 M 910.5 439.5 L 910.5 444.5 M 1042.5 439.5 L 1042.5 444.5" fill="none" stroke-linecap="butt" stroke-linejoin="round" stroke="#8C8C8C" stroke-width="1" stroke-opacity="1"></path></g><g id="myChart-graph-id0-plots-fl-0"><g id="myChart-graph-id0-plot-0-fl-0-c" class="zc-abs zc-layer zc-fl" data-clip="114,44,935,402" style="display: block;"><path id="myChart-graph-id0-plotset-plot-0-node-0-goal-path" d="M 446 359 L 454 359 L 454 379 L 446 379 L 446 359 L 446 359" fill="#00796b" fill-opacity="0.9" stroke-linecap="square" stroke-linejoin="miter"></path><path id="myChart-graph-id0-plotset-plot-0-node-1-goal-path" d="M 512 261 L 520 261 L 520 281 L 512 281 L 512 261 L 512 261" fill="#00796b" fill-opacity="0.9" stroke-linecap="square" stroke-linejoin="miter"></path><path id="myChart-graph-id0-plotset-plot-0-node-2-goal-path" d="M 512 164 L 520 164 L 520 184 L 512 184 L 512 164 L 512 164" fill="#00796b" fill-opacity="0.9" stroke-linecap="square" stroke-linejoin="miter"></path><path id="myChart-graph-id0-plotset-plot-0-node-3-goal-path" d="M 709 66 L 717 66 L 717 86 L 709 86 L 709 66 L 709 66" fill="#00796b" fill-opacity="0.9" stroke-linecap="square" stroke-linejoin="miter"></path></g><g id="myChart-graph-id0-plot-1-fl-0-c" class="zc-abs zc-layer zc-fl" data-clip="114,44,935,402" style="display: block;"><path id="myChart-graph-id0-plotset-plot-1-node-0-goal-path" d="M 709 381 L 717 381 L 717 401 L 709 401 L 709 381 L 709 381" fill="#ffa000" fill-opacity="0.9" stroke-linecap="square" stroke-linejoin="miter"></path><path id="myChart-graph-id0-plotset-plot-1-node-1-goal-path" d="M 775 284 L 783 284 L 783 304 L 775 304 L 775 284 L 775 284" fill="#ffa000" fill-opacity="0.9" stroke-linecap="square" stroke-linejoin="miter"></path><path id="myChart-graph-id0-plotset-plot-1-node-2-goal-path" d="M 709 186 L 717 186 L 717 206 L 709 206 L 709 186 L 709 186" fill="#ffa000" fill-opacity="0.9" stroke-linecap="square" stroke-linejoin="miter"></path><path id="myChart-graph-id0-plotset-plot-1-node-3-goal-path" d="M 512 89 L 520 89 L 520 109 L 512 109 L 512 89 L 512 89" fill="#ffa000" fill-opacity="0.9" stroke-linecap="square" stroke-linejoin="miter"></path></g><g id="myChart-graph-id0-plot-2-fl-0-c" class="zc-abs zc-layer zc-fl" data-clip="114,44,935,402" style="display: block;"><path id="myChart-graph-id0-plotset-plot-2-node-0-goal-path" d="M 182 404 L 190 404 L 190 424 L 182 424 L 182 404 L 182 404" fill="#7b1fa2" fill-opacity="0.9" stroke-linecap="square" stroke-linejoin="miter"></path><path id="myChart-graph-id0-plotset-plot-2-node-1-goal-path" d="M 314 306 L 322 306 L 322 326 L 314 326 L 314 306 L 314 306" fill="#7b1fa2" fill-opacity="0.9" stroke-linecap="square" stroke-linejoin="miter"></path><path id="myChart-graph-id0-plotset-plot-2-node-2-goal-path" d="M 248 209 L 256 209 L 256 229 L 248 229 L 248 209 L 248 209" fill="#7b1fa2" fill-opacity="0.9" stroke-linecap="square" stroke-linejoin="miter"></path><path id="myChart-graph-id0-plotset-plot-2-node-3-goal-path" d="M 314 111 L 322 111 L 322 131 L 314 131 L 314 111 L 314 111" fill="#7b1fa2" fill-opacity="0.9" stroke-linecap="square" stroke-linejoin="miter"></path></g></g><g id="myChart-graph-id0-scales-fl" clip-path="url(#myChart-graph-id0-clip)"><g id="myChart-graph-id0-scales-fl-0-c" class="zc-abs zc-layer"></g></g><g id="myChart-graph-id0-scroll"></g><g id="myChart-graph-id0-plots-vb"><g id="myChart-graph-id0-plot-0-vb-c" class="zc-abs zc-layer zc-vb"></g><g id="myChart-graph-id0-plot-1-vb-c" class="zc-abs zc-layer zc-vb"></g><g id="myChart-graph-id0-plot-2-vb-c" class="zc-abs zc-layer zc-vb"></g></g><g id="myChart-graph-id0-titles"><g id="myChart-graph-id0-titles-c" class="zc-abs zc-layer"></g><text x="6" y="6" id="myChart-graph-id0-title" class="" opacity="1"><tspan x="430.25" y="27" color="#212121" fill="#212121" dy="0" style="font-weight: bold; font-style: normal; text-decoration: none; font-size: 21px; font-family: &quot;Lucida Sans Unicode&quot;, &quot;Lucida Grande&quot;, &quot;Lucida Sans&quot;, Helvetica, Arial, sans-serif; dominant-baseline: auto;">Call Center Daily Goals</tspan></text></g></g></g><g id="myChart-objects-maps" class="zc-abs"></g><g id="myChart-objects-top" class="zc-abs"><g id="myChart-graph-id0-objects-top" class="zc-abs"><g id="myChart-graph-id0-objects-top-sh-c" class="zc-abs zc-layer"></g><g id="myChart-graph-id0-objects-top-c" class="zc-abs zc-layer"><path id="myChart-graph-id0-label-lbl_0_9205-path" d="M 95 366 L 145 366 L 145 416 L 95 416 L 95 366 L 95 366" fill="none" stroke-linecap="square" stroke-linejoin="miter" transform="translate(-50 0)"></path><path id="myChart-graph-id0-label-lbl_1_4824-path" d="M 95 269 L 145 269 L 145 319 L 95 319 L 95 269 L 95 269" fill="none" stroke-linecap="square" stroke-linejoin="miter" transform="translate(-50 0)"></path><path id="myChart-graph-id0-label-lbl_2_3795-path" d="M 95 171 L 145 171 L 145 221 L 95 221 L 95 171 L 95 171" fill="none" stroke-linecap="square" stroke-linejoin="miter" transform="translate(-50 0)"></path><path id="myChart-graph-id0-label-lbl_3_3138-path" d="M 95 74 L 145 74 L 145 124 L 95 124 L 95 74 L 95 74" fill="none" stroke-linecap="square" stroke-linejoin="miter" transform="translate(-50 0)"></path></g><g id="myChart-graph-id0-objects-print-c" class="zc-abs zc-layer"></g></g></g><g id="myChart-hover" class="zc-abs"><g id="myChart-graph-id0-hover" class="zc-abs" clip-path="url(#myChart-graph-id0-clip-hover)"><g id="myChart-graph-id0-hover-c" class="zc-abs zc-layer"></g></g><g id="myChart-graph-id0-objects-click" class="zc-abs"><g id="myChart-graph-id0-objects-click-c" class="zc-abs zc-layer"></g></g><g id="myChart-graph-id0-objects-hover" class="zc-abs"><g id="myChart-graph-id0-objects-hover-c" class="zc-abs zc-layer"></g></g></g><g id="myChart-objects-front" class="zc-abs"></g><g id="myChart-text" class="zc-abs zc-text"><text x="16.09" y="237.85" id="myChart-graph-id0-scale_x-item_title" class="myChart-graph-id0-scale-x-label myChart-graph-id0-scale-label zc-scale-label" opacity="1" transform="rotate(270 31.84999990463257 245)"><tspan x="16.09" y="248.85" color="#414042" fill="#414042" dy="0" style="font-weight: bold; font-style: normal; text-decoration: none; font-size: 11px; font-family: &quot;Lucida Sans Unicode&quot;, &quot;Lucida Grande&quot;, &quot;Lucida Sans&quot;, Helvetica, Arial, sans-serif; dominant-baseline: auto;">Agent</tspan></text><text x="116.2" y="447" id="myChart-graph-id0-scale_y-item_0" class="myChart-graph-id0-scale-y-item myChart-graph-id0-scale-item zc-scale-item" opacity="1"><tspan x="116.2" y="459" color="#808285" fill="#808285" dy="0" style="font-weight: normal; font-style: normal; text-decoration: none; font-size: 12px; font-family: &quot;Lucida Sans Unicode&quot;, &quot;Lucida Grande&quot;, &quot;Lucida Sans&quot;, Helvetica, Arial, sans-serif; dominant-baseline: auto;">0</tspan></text><text x="1035.41" y="447" id="myChart-graph-id0-scale_y-item_7" class="myChart-graph-id0-scale-y-item myChart-graph-id0-scale-item zc-scale-item" opacity="1"><tspan x="1035.41" y="459" color="#808285" fill="#808285" dy="0" style="font-weight: normal; font-style: normal; text-decoration: none; font-size: 12px; font-family: &quot;Lucida Sans Unicode&quot;, &quot;Lucida Grande&quot;, &quot;Lucida Sans&quot;, Helvetica, Arial, sans-serif; dominant-baseline: auto;">70</tspan></text><text x="244.26" y="447" id="myChart-graph-id0-scale_y-item_1" class="myChart-graph-id0-scale-y-item myChart-graph-id0-scale-item zc-scale-item" opacity="1"><tspan x="244.26" y="459" color="#808285" fill="#808285" dy="0" style="font-weight: normal; font-style: normal; text-decoration: none; font-size: 12px; font-family: &quot;Lucida Sans Unicode&quot;, &quot;Lucida Grande&quot;, &quot;Lucida Sans&quot;, Helvetica, Arial, sans-serif; dominant-baseline: auto;">10</tspan></text><text x="376.12" y="447" id="myChart-graph-id0-scale_y-item_2" class="myChart-graph-id0-scale-y-item myChart-graph-id0-scale-item zc-scale-item" opacity="1"><tspan x="376.12" y="459" color="#808285" fill="#808285" dy="0" style="font-weight: normal; font-style: normal; text-decoration: none; font-size: 12px; font-family: &quot;Lucida Sans Unicode&quot;, &quot;Lucida Grande&quot;, &quot;Lucida Sans&quot;, Helvetica, Arial, sans-serif; dominant-baseline: auto;">20</tspan></text><text x="507.98" y="447" id="myChart-graph-id0-scale_y-item_3" class="myChart-graph-id0-scale-y-item myChart-graph-id0-scale-item zc-scale-item" opacity="1"><tspan x="507.98" y="459" color="#808285" fill="#808285" dy="0" style="font-weight: normal; font-style: normal; text-decoration: none; font-size: 12px; font-family: &quot;Lucida Sans Unicode&quot;, &quot;Lucida Grande&quot;, &quot;Lucida Sans&quot;, Helvetica, Arial, sans-serif; dominant-baseline: auto;">30</tspan></text><text x="639.83" y="447" id="myChart-graph-id0-scale_y-item_4" class="myChart-graph-id0-scale-y-item myChart-graph-id0-scale-item zc-scale-item" opacity="1"><tspan x="639.83" y="459" color="#808285" fill="#808285" dy="0" style="font-weight: normal; font-style: normal; text-decoration: none; font-size: 12px; font-family: &quot;Lucida Sans Unicode&quot;, &quot;Lucida Grande&quot;, &quot;Lucida Sans&quot;, Helvetica, Arial, sans-serif; dominant-baseline: auto;">40</tspan></text><text x="771.69" y="447" id="myChart-graph-id0-scale_y-item_5" class="myChart-graph-id0-scale-y-item myChart-graph-id0-scale-item zc-scale-item" opacity="1"><tspan x="771.69" y="459" color="#808285" fill="#808285" dy="0" style="font-weight: normal; font-style: normal; text-decoration: none; font-size: 12px; font-family: &quot;Lucida Sans Unicode&quot;, &quot;Lucida Grande&quot;, &quot;Lucida Sans&quot;, Helvetica, Arial, sans-serif; dominant-baseline: auto;">50</tspan></text><text x="903.55" y="447" id="myChart-graph-id0-scale_y-item_6" class="myChart-graph-id0-scale-y-item myChart-graph-id0-scale-item zc-scale-item" opacity="1"><tspan x="903.55" y="459" color="#808285" fill="#808285" dy="0" style="font-weight: normal; font-style: normal; text-decoration: none; font-size: 12px; font-family: &quot;Lucida Sans Unicode&quot;, &quot;Lucida Grande&quot;, &quot;Lucida Sans&quot;, Helvetica, Arial, sans-serif; dominant-baseline: auto;">60</tspan></text><text x="527.02" y="469" id="myChart-graph-id0-scale_y-item_title" class="myChart-graph-id0-scale-y-label myChart-graph-id0-scale-label zc-scale-label" opacity="1"><tspan x="527.02" y="480" color="#414042" fill="#414042" dy="0" style="font-weight: bold; font-style: normal; text-decoration: none; font-size: 11px; font-family: &quot;Lucida Sans Unicode&quot;, &quot;Lucida Grande&quot;, &quot;Lucida Sans&quot;, Helvetica, Arial, sans-serif; dominant-baseline: auto;">Number of Incidents</tspan></text><text x="47" y="368" id="myChart-graph-id0-label-lbl_0_9205" class="myChart-graph-id0-label zc-label" opacity="1"><tspan x="65" y="397" color="#000" fill="#000" dy="0" style="font-weight: normal; font-style: normal; text-decoration: none; font-size: 11px; font-family: &quot;Lucida Sans Unicode&quot;, &quot;Lucida Grande&quot;, &quot;Lucida Sans&quot;, Helvetica, Arial, sans-serif; dominant-baseline: auto;"></tspan></text><text x="47" y="271" id="myChart-graph-id0-label-lbl_1_4824" class="myChart-graph-id0-label zc-label" opacity="1"><tspan x="65" y="300" color="#000" fill="#000" dy="0" style="font-weight: normal; font-style: normal; text-decoration: none; font-size: 11px; font-family: &quot;Lucida Sans Unicode&quot;, &quot;Lucida Grande&quot;, &quot;Lucida Sans&quot;, Helvetica, Arial, sans-serif; dominant-baseline: auto;"></tspan></text><text x="47" y="173" id="myChart-graph-id0-label-lbl_2_3795" class="myChart-graph-id0-label zc-label" opacity="1"><tspan x="65" y="202" color="#000" fill="#000" dy="0" style="font-weight: normal; font-style: normal; text-decoration: none; font-size: 11px; font-family: &quot;Lucida Sans Unicode&quot;, &quot;Lucida Grande&quot;, &quot;Lucida Sans&quot;, Helvetica, Arial, sans-serif; dominant-baseline: auto;"></tspan></text><text x="47" y="76" id="myChart-graph-id0-label-lbl_3_3138" class="myChart-graph-id0-label zc-label" opacity="1"><tspan x="65" y="105" color="#000" fill="#000" dy="0" style="font-weight: normal; font-style: normal; text-decoration: none; font-size: 11px; font-family: &quot;Lucida Sans Unicode&quot;, &quot;Lucida Grande&quot;, &quot;Lucida Sans&quot;, Helvetica, Arial, sans-serif; dominant-baseline: auto;"></tspan></text></g><g id="myChart-legend" class="zc-abs"></g><g id="myChart-tools" class="zc-abs"><g id="myChart-static-c" class="zc-abs zc-layer"></g><g id="myChart-guide-c" class="zc-abs zc-layer zc-guide-c"></g><g id="myChart-trigger-c" class="zc-abs zc-layer"></g><g id="myChart-print-c" class="zc-abs zc-layer"></g><g id="myChart-textprint-c" class="zc-abs zc-layer"></g></g><g id="myChart-text-top" class="zc-abs"></g></g><clipPath id="myChart-graph-id0-clip"><polygon id="myChart-graph-id0-clip-shape" points="118,48 1045,48 1045,442 118,442 118,48"></polygon></clipPath><clipPath id="myChart-graph-id0-clip-hover"><polygon id="myChart-graph-id0-clip-hover-shape" points="114,44 1049,44 1049,446 114,446 114,44"></polygon></clipPath></svg>